<svg xmlns="http://www.w3.org/2000/svg" width="13.866" height="27.45" viewBox="0 0 13.866 27.45">
  <path id="XMLID_835_" d="M17.763,14.62h3.009V27.007a.443.443,0,0,0,.443.443h5.1a.443.443,0,0,0,.443-.443V14.678h3.459a.443.443,0,0,0,.44-.392l.525-4.56a.443.443,0,0,0-.44-.493H26.759V6.374c0-.862.464-1.3,1.379-1.3h2.605a.443.443,0,0,0,.443-.443V.446A.443.443,0,0,0,30.744,0h-3.59c-.025,0-.082,0-.164,0a6.88,6.88,0,0,0-4.5,1.7,4.718,4.718,0,0,0-1.569,4.193V9.232H17.763a.443.443,0,0,0-.443.443v4.5A.443.443,0,0,0,17.763,14.62Z" transform="translate(-17.32)" fill="#4584f3"/>
</svg>
