<svg xmlns="http://www.w3.org/2000/svg" width="29.5" height="29.5" viewBox="0 0 29.5 29.5">
  <path id="iconmonstr-instagram-11" d="M14.75,2.659c3.938,0,4.405.015,5.961.086,4,.182,5.864,2.079,6.046,6.046.071,1.555.085,2.022.085,5.96s-.015,4.405-.085,5.96c-.183,3.964-2.045,5.864-6.046,6.046-1.556.071-2.021.086-5.961.086s-4.405-.015-5.96-.086c-4.007-.183-5.864-2.088-6.046-6.048-.071-1.555-.086-2.021-.086-5.96s.016-4.4.086-5.96C2.927,4.823,4.789,2.925,8.79,2.744c1.556-.07,2.022-.085,5.96-.085ZM14.75,0c-4.006,0-4.507.017-6.081.088C3.313.334.336,3.306.09,8.668.017,10.243,0,10.744,0,14.75s.017,4.509.088,6.082c.246,5.357,3.218,8.334,8.58,8.58,1.575.071,2.076.089,6.082.089s4.509-.017,6.082-.089c5.352-.246,8.336-3.218,8.578-8.58.073-1.573.09-2.076.09-6.082s-.017-4.507-.089-6.081C29.171,3.318,26.195.336,20.833.09,19.259.017,18.756,0,14.75,0Zm0,7.176a7.575,7.575,0,1,0,7.574,7.574A7.574,7.574,0,0,0,14.75,7.176Zm0,12.491a4.917,4.917,0,1,1,4.917-4.917A4.916,4.916,0,0,1,14.75,19.667ZM22.624,5.107a1.77,1.77,0,1,0,1.769,1.77A1.771,1.771,0,0,0,22.624,5.107Z" transform="translate(0 0)" fill="#4584f3"/>
</svg>

