<svg id="Component_4_12" data-name="Component 4 – 12" xmlns="http://www.w3.org/2000/svg" width="28.9" height="28.9" viewBox="0 0 28.9 28.9">
  <path id="Path_99" data-name="Path 99" d="M14.434,11.961a19.768,19.768,0,0,0,.722,4.158l-1.927,1.927a23.8,23.8,0,0,1-1.22-6.085h2.424m15.831,19.3a20.475,20.475,0,0,0,4.174.722v2.392a24.768,24.768,0,0,1-6.1-1.2l1.927-1.911M15.975,8.75H10.356A1.61,1.61,0,0,0,8.75,10.356,27.292,27.292,0,0,0,36.044,37.65a1.61,1.61,0,0,0,1.606-1.606v-5.6a1.61,1.61,0,0,0-1.606-1.606,18.315,18.315,0,0,1-5.732-.915,1.348,1.348,0,0,0-.5-.08,1.645,1.645,0,0,0-1.14.466l-3.532,3.532A24.322,24.322,0,0,1,14.562,21.257l3.532-3.532a1.611,1.611,0,0,0,.4-1.638,18.24,18.24,0,0,1-.915-5.732A1.61,1.61,0,0,0,15.975,8.75Z" transform="translate(-8.75 -8.75)" fill="#4584f3"/>
</svg>
