<svg id="Group_228" data-name="Group 228" xmlns="http://www.w3.org/2000/svg" width="45.667" height="45.667" viewBox="0 0 45.667 45.667">
  <path id="Path_100" data-name="Path 100" d="M0,0H45.667V45.667H0Z" fill="none"/>
  <circle id="Ellipse_18" data-name="Ellipse 18" cx="3.792" cy="3.792" r="3.792" transform="translate(19.041 13.25)" fill="#4584f3"/>
  <path id="Path_101" data-name="Path 101" d="M26,5.833A11.408,11.408,0,0,0,14.583,17.25c0,8.563,11.417,21.2,11.417,21.2s11.417-12.64,11.417-21.2A11.408,11.408,0,0,0,26,5.833ZM17.845,17.25a8.155,8.155,0,0,1,16.31,0c0,4.7-4.7,11.727-8.155,16.114C22.608,29.009,17.845,21.9,17.845,17.25Z" transform="translate(-3.166)" fill="#4584f3"/>
</svg>

